<mxfile host="app.diagrams.net" modified="2023-02-27T07:11:20.880Z" agent="5.0 (X11)" etag="Sve7b5kjHcuwYUoZA5VL" version="20.8.23" type="github">
  <diagram id="C5RBs43oDa-KdzZeNtuy" name="Page-1">
    <mxGraphModel dx="1687" dy="979" grid="1" gridSize="10" guides="1" tooltips="1" connect="1" arrows="1" fold="1" page="1" pageScale="1" pageWidth="827" pageHeight="1169" math="0" shadow="0">
      <root>
        <mxCell id="WIyWlLk6GJQsqaUBKTNV-0" />
        <mxCell id="WIyWlLk6GJQsqaUBKTNV-1" parent="WIyWlLk6GJQsqaUBKTNV-0" />
        <mxCell id="OYuoTdjRCr1aVx-3H9GQ-7" value="" style="edgeStyle=orthogonalEdgeStyle;rounded=0;orthogonalLoop=1;jettySize=auto;html=1;fontSize=9;" edge="1" parent="WIyWlLk6GJQsqaUBKTNV-1" source="WIyWlLk6GJQsqaUBKTNV-3" target="OYuoTdjRCr1aVx-3H9GQ-0">
          <mxGeometry relative="1" as="geometry" />
        </mxCell>
        <mxCell id="WIyWlLk6GJQsqaUBKTNV-3" value="MVS erkannt" style="rounded=1;whiteSpace=wrap;html=1;fontSize=12;glass=0;strokeWidth=1;shadow=0;" parent="WIyWlLk6GJQsqaUBKTNV-1" vertex="1">
          <mxGeometry x="340" y="80" width="120" height="40" as="geometry" />
        </mxCell>
        <mxCell id="OYuoTdjRCr1aVx-3H9GQ-10" value="" style="edgeStyle=orthogonalEdgeStyle;rounded=0;orthogonalLoop=1;jettySize=auto;html=1;fontSize=9;" edge="1" parent="WIyWlLk6GJQsqaUBKTNV-1" source="OYuoTdjRCr1aVx-3H9GQ-0" target="OYuoTdjRCr1aVx-3H9GQ-4">
          <mxGeometry relative="1" as="geometry" />
        </mxCell>
        <mxCell id="OYuoTdjRCr1aVx-3H9GQ-0" value="Messen" style="rounded=1;whiteSpace=wrap;html=1;fontSize=12;glass=0;strokeWidth=1;shadow=0;" vertex="1" parent="WIyWlLk6GJQsqaUBKTNV-1">
          <mxGeometry x="340" y="140" width="120" height="40" as="geometry" />
        </mxCell>
        <mxCell id="OYuoTdjRCr1aVx-3H9GQ-1" value="Analysieren" style="rounded=1;whiteSpace=wrap;html=1;fontSize=12;glass=0;strokeWidth=1;shadow=0;" vertex="1" parent="WIyWlLk6GJQsqaUBKTNV-1">
          <mxGeometry x="340" y="200" width="120" height="40" as="geometry" />
        </mxCell>
        <mxCell id="OYuoTdjRCr1aVx-3H9GQ-13" value="" style="edgeStyle=orthogonalEdgeStyle;rounded=0;orthogonalLoop=1;jettySize=auto;html=1;fontSize=9;" edge="1" parent="WIyWlLk6GJQsqaUBKTNV-1" source="OYuoTdjRCr1aVx-3H9GQ-4" target="OYuoTdjRCr1aVx-3H9GQ-12">
          <mxGeometry relative="1" as="geometry" />
        </mxCell>
        <mxCell id="OYuoTdjRCr1aVx-3H9GQ-16" value="" style="edgeStyle=orthogonalEdgeStyle;rounded=0;orthogonalLoop=1;jettySize=auto;html=1;fontSize=9;" edge="1" parent="WIyWlLk6GJQsqaUBKTNV-1" source="OYuoTdjRCr1aVx-3H9GQ-4" target="OYuoTdjRCr1aVx-3H9GQ-11">
          <mxGeometry relative="1" as="geometry" />
        </mxCell>
        <mxCell id="OYuoTdjRCr1aVx-3H9GQ-4" value="&lt;div style=&quot;font-size: 9px;&quot;&gt;&lt;font style=&quot;font-size: 9px;&quot;&gt;Ruhezustand leitend?&lt;/font&gt;&lt;/div&gt;&lt;div style=&quot;font-size: 9px;&quot;&gt;&lt;font style=&quot;font-size: 9px;&quot;&gt;Genug sensitiv?&lt;/font&gt;&lt;br&gt;&lt;/div&gt;" style="rhombus;whiteSpace=wrap;html=1;shadow=0;fontFamily=Helvetica;fontSize=12;align=center;strokeWidth=1;spacing=6;spacingTop=-4;" vertex="1" parent="WIyWlLk6GJQsqaUBKTNV-1">
          <mxGeometry x="355" y="260" width="90" height="80" as="geometry" />
        </mxCell>
        <mxCell id="OYuoTdjRCr1aVx-3H9GQ-40" value="" style="edgeStyle=none;rounded=0;orthogonalLoop=1;jettySize=auto;html=1;fontSize=9;" edge="1" parent="WIyWlLk6GJQsqaUBKTNV-1" source="OYuoTdjRCr1aVx-3H9GQ-11" target="OYuoTdjRCr1aVx-3H9GQ-39">
          <mxGeometry relative="1" as="geometry" />
        </mxCell>
        <mxCell id="OYuoTdjRCr1aVx-3H9GQ-11" value="Sortieren „Schlecht“" style="rounded=1;whiteSpace=wrap;html=1;fontSize=12;glass=0;strokeWidth=1;shadow=0;" vertex="1" parent="WIyWlLk6GJQsqaUBKTNV-1">
          <mxGeometry x="500" y="280" width="120" height="40" as="geometry" />
        </mxCell>
        <mxCell id="OYuoTdjRCr1aVx-3H9GQ-27" value="" style="edgeStyle=orthogonalEdgeStyle;rounded=0;orthogonalLoop=1;jettySize=auto;html=1;fontSize=9;" edge="1" parent="WIyWlLk6GJQsqaUBKTNV-1" source="OYuoTdjRCr1aVx-3H9GQ-12" target="OYuoTdjRCr1aVx-3H9GQ-19">
          <mxGeometry relative="1" as="geometry" />
        </mxCell>
        <mxCell id="OYuoTdjRCr1aVx-3H9GQ-12" value="Rotieren um 180°" style="rounded=1;whiteSpace=wrap;html=1;fontSize=12;glass=0;strokeWidth=1;shadow=0;" vertex="1" parent="WIyWlLk6GJQsqaUBKTNV-1">
          <mxGeometry x="340" y="360" width="120" height="40" as="geometry" />
        </mxCell>
        <mxCell id="OYuoTdjRCr1aVx-3H9GQ-14" value="Ja" style="text;html=1;strokeColor=none;fillColor=none;align=center;verticalAlign=middle;whiteSpace=wrap;rounded=0;fontSize=9;" vertex="1" parent="WIyWlLk6GJQsqaUBKTNV-1">
          <mxGeometry x="370" y="340" width="16" height="10" as="geometry" />
        </mxCell>
        <mxCell id="OYuoTdjRCr1aVx-3H9GQ-15" value="Nein" style="text;html=1;strokeColor=none;fillColor=none;align=center;verticalAlign=middle;whiteSpace=wrap;rounded=0;fontSize=9;" vertex="1" parent="WIyWlLk6GJQsqaUBKTNV-1">
          <mxGeometry x="460" y="280" width="20" height="10" as="geometry" />
        </mxCell>
        <mxCell id="OYuoTdjRCr1aVx-3H9GQ-18" value="Messen" style="rounded=1;whiteSpace=wrap;html=1;fontSize=12;glass=0;strokeWidth=1;shadow=0;" vertex="1" parent="WIyWlLk6GJQsqaUBKTNV-1">
          <mxGeometry x="340" y="420" width="120" height="40" as="geometry" />
        </mxCell>
        <mxCell id="OYuoTdjRCr1aVx-3H9GQ-31" value="" style="edgeStyle=orthogonalEdgeStyle;rounded=0;orthogonalLoop=1;jettySize=auto;html=1;fontSize=9;" edge="1" parent="WIyWlLk6GJQsqaUBKTNV-1" source="OYuoTdjRCr1aVx-3H9GQ-19" target="OYuoTdjRCr1aVx-3H9GQ-22">
          <mxGeometry relative="1" as="geometry" />
        </mxCell>
        <mxCell id="OYuoTdjRCr1aVx-3H9GQ-19" value="Analysieren" style="rounded=1;whiteSpace=wrap;html=1;fontSize=12;glass=0;strokeWidth=1;shadow=0;" vertex="1" parent="WIyWlLk6GJQsqaUBKTNV-1">
          <mxGeometry x="340" y="480" width="120" height="40" as="geometry" />
        </mxCell>
        <mxCell id="OYuoTdjRCr1aVx-3H9GQ-21" value="" style="edgeStyle=orthogonalEdgeStyle;rounded=0;orthogonalLoop=1;jettySize=auto;html=1;fontSize=9;" edge="1" parent="WIyWlLk6GJQsqaUBKTNV-1" source="OYuoTdjRCr1aVx-3H9GQ-22" target="OYuoTdjRCr1aVx-3H9GQ-23">
          <mxGeometry relative="1" as="geometry" />
        </mxCell>
        <mxCell id="OYuoTdjRCr1aVx-3H9GQ-30" value="" style="edgeStyle=orthogonalEdgeStyle;rounded=0;orthogonalLoop=1;jettySize=auto;html=1;fontSize=9;" edge="1" parent="WIyWlLk6GJQsqaUBKTNV-1" source="OYuoTdjRCr1aVx-3H9GQ-22" target="OYuoTdjRCr1aVx-3H9GQ-29">
          <mxGeometry relative="1" as="geometry" />
        </mxCell>
        <mxCell id="OYuoTdjRCr1aVx-3H9GQ-22" value="&lt;div style=&quot;font-size: 9px;&quot;&gt;&lt;font style=&quot;font-size: 9px;&quot;&gt;Ruhezustand leitend?&lt;/font&gt;&lt;/div&gt;&lt;div style=&quot;font-size: 9px;&quot;&gt;&lt;font style=&quot;font-size: 9px;&quot;&gt;Genug sensitiv?&lt;/font&gt;&lt;br&gt;&lt;/div&gt;" style="rhombus;whiteSpace=wrap;html=1;shadow=0;fontFamily=Helvetica;fontSize=12;align=center;strokeWidth=1;spacing=6;spacingTop=-4;" vertex="1" parent="WIyWlLk6GJQsqaUBKTNV-1">
          <mxGeometry x="355" y="540" width="90" height="80" as="geometry" />
        </mxCell>
        <mxCell id="OYuoTdjRCr1aVx-3H9GQ-45" value="" style="edgeStyle=none;rounded=0;orthogonalLoop=1;jettySize=auto;html=1;fontSize=9;" edge="1" parent="WIyWlLk6GJQsqaUBKTNV-1" source="OYuoTdjRCr1aVx-3H9GQ-23" target="OYuoTdjRCr1aVx-3H9GQ-44">
          <mxGeometry relative="1" as="geometry" />
        </mxCell>
        <mxCell id="OYuoTdjRCr1aVx-3H9GQ-23" value="Sortieren „schlecht“" style="rounded=1;whiteSpace=wrap;html=1;fontSize=12;glass=0;strokeWidth=1;shadow=0;" vertex="1" parent="WIyWlLk6GJQsqaUBKTNV-1">
          <mxGeometry x="500" y="560" width="120" height="40" as="geometry" />
        </mxCell>
        <mxCell id="OYuoTdjRCr1aVx-3H9GQ-24" value="Ja" style="text;html=1;strokeColor=none;fillColor=none;align=center;verticalAlign=middle;whiteSpace=wrap;rounded=0;fontSize=9;" vertex="1" parent="WIyWlLk6GJQsqaUBKTNV-1">
          <mxGeometry x="370" y="620" width="16" height="10" as="geometry" />
        </mxCell>
        <mxCell id="OYuoTdjRCr1aVx-3H9GQ-25" value="Nein" style="text;html=1;strokeColor=none;fillColor=none;align=center;verticalAlign=middle;whiteSpace=wrap;rounded=0;fontSize=9;" vertex="1" parent="WIyWlLk6GJQsqaUBKTNV-1">
          <mxGeometry x="460" y="560" width="20" height="10" as="geometry" />
        </mxCell>
        <mxCell id="OYuoTdjRCr1aVx-3H9GQ-33" value="" style="edgeStyle=orthogonalEdgeStyle;rounded=0;orthogonalLoop=1;jettySize=auto;html=1;fontSize=9;" edge="1" parent="WIyWlLk6GJQsqaUBKTNV-1" source="OYuoTdjRCr1aVx-3H9GQ-29" target="OYuoTdjRCr1aVx-3H9GQ-32">
          <mxGeometry relative="1" as="geometry" />
        </mxCell>
        <mxCell id="OYuoTdjRCr1aVx-3H9GQ-29" value="Sortieren „gut“" style="rounded=1;whiteSpace=wrap;html=1;fontSize=12;glass=0;strokeWidth=1;shadow=0;" vertex="1" parent="WIyWlLk6GJQsqaUBKTNV-1">
          <mxGeometry x="340" y="640" width="120" height="40" as="geometry" />
        </mxCell>
        <mxCell id="OYuoTdjRCr1aVx-3H9GQ-43" style="edgeStyle=none;rounded=0;orthogonalLoop=1;jettySize=auto;html=1;fontSize=9;entryX=0;entryY=0.5;entryDx=0;entryDy=0;" edge="1" parent="WIyWlLk6GJQsqaUBKTNV-1" source="OYuoTdjRCr1aVx-3H9GQ-32" target="WIyWlLk6GJQsqaUBKTNV-3">
          <mxGeometry relative="1" as="geometry">
            <mxPoint x="310" y="10" as="targetPoint" />
            <Array as="points">
              <mxPoint x="400" y="770" />
              <mxPoint x="280" y="770" />
              <mxPoint x="280" y="400" />
              <mxPoint x="280" y="100" />
              <mxPoint x="310" y="100" />
            </Array>
          </mxGeometry>
        </mxCell>
        <mxCell id="OYuoTdjRCr1aVx-3H9GQ-32" value="Rotieren um 180°" style="rounded=1;whiteSpace=wrap;html=1;fontSize=12;glass=0;strokeWidth=1;shadow=0;" vertex="1" parent="WIyWlLk6GJQsqaUBKTNV-1">
          <mxGeometry x="340" y="700" width="120" height="40" as="geometry" />
        </mxCell>
        <mxCell id="OYuoTdjRCr1aVx-3H9GQ-41" style="edgeStyle=none;rounded=0;orthogonalLoop=1;jettySize=auto;html=1;fontSize=9;entryX=1;entryY=0.5;entryDx=0;entryDy=0;" edge="1" parent="WIyWlLk6GJQsqaUBKTNV-1" source="OYuoTdjRCr1aVx-3H9GQ-39" target="WIyWlLk6GJQsqaUBKTNV-3">
          <mxGeometry relative="1" as="geometry">
            <mxPoint x="670" y="40" as="targetPoint" />
            <Array as="points">
              <mxPoint x="640" y="360" />
              <mxPoint x="640" y="100" />
            </Array>
          </mxGeometry>
        </mxCell>
        <mxCell id="OYuoTdjRCr1aVx-3H9GQ-39" value="Rotieren zu 0°" style="rounded=1;whiteSpace=wrap;html=1;fontSize=12;glass=0;strokeWidth=1;shadow=0;" vertex="1" parent="WIyWlLk6GJQsqaUBKTNV-1">
          <mxGeometry x="500" y="340" width="120" height="40" as="geometry" />
        </mxCell>
        <mxCell id="OYuoTdjRCr1aVx-3H9GQ-46" style="edgeStyle=none;rounded=0;orthogonalLoop=1;jettySize=auto;html=1;fontSize=9;" edge="1" parent="WIyWlLk6GJQsqaUBKTNV-1" source="OYuoTdjRCr1aVx-3H9GQ-44">
          <mxGeometry relative="1" as="geometry">
            <mxPoint x="640" y="200" as="targetPoint" />
            <Array as="points">
              <mxPoint x="680" y="640" />
              <mxPoint x="680" y="200" />
            </Array>
          </mxGeometry>
        </mxCell>
        <mxCell id="OYuoTdjRCr1aVx-3H9GQ-44" value="Rotieren zu 0°" style="rounded=1;whiteSpace=wrap;html=1;fontSize=12;glass=0;strokeWidth=1;shadow=0;" vertex="1" parent="WIyWlLk6GJQsqaUBKTNV-1">
          <mxGeometry x="500" y="620" width="120" height="40" as="geometry" />
        </mxCell>
      </root>
    </mxGraphModel>
  </diagram>
</mxfile>
